<svg id="visual" viewBox="0 0 900 600" width="900" height="600" xmlns="http://www.w3.org/2000/svg" xmlns:xlink="http://www.w3.org/1999/xlink" version="1.1"><rect x="0" y="0" width="900" height="600" fill="#FFFFFF"></rect><g transform="translate(874.7059595470255 597.7369282338674)"><path d="M215.2 -295.7C289.7 -242 368.3 -193.6 416.4 -118.2C464.4 -42.7 481.9 59.7 440.3 129.3C398.7 198.8 298.1 235.3 214.9 288.3C131.7 341.2 65.8 410.6 -10 424.4C-85.8 438.1 -171.6 396.2 -223.6 333.1C-275.7 270 -293.9 185.7 -330.1 101C-366.2 16.2 -420.4 -69 -412.3 -146.3C-404.2 -223.6 -333.7 -293 -254.6 -345.2C-175.6 -397.3 -87.8 -432.1 -8.7 -420.1C70.3 -408.1 140.7 -349.3 215.2 -295.7" fill="#5CE1E6"></path></g></svg>