<svg width="2024" height="2432" viewBox="0 0 2024 2432" fill="none" xmlns="http://www.w3.org/2000/svg">
<path fill-rule="evenodd" clip-rule="evenodd" d="M889.732 101.66C1119.92 58.1922 1359.62 -70.9963 1570.05 51.2573C1792.91 180.795 1958.11 457.126 2010 752.606C2059.89 1036.55 1970.35 1335.25 1837.88 1576.13C1725.78 1779.93 1507.98 1823.27 1343.65 1964.16C1183.72 2101.2 1079.75 2334.53 889.732 2388.88C674.872 2450.47 404.24 2471 250.187 2277.24C94.8295 2081.83 216.787 1751.77 170.785 1484.78C132.44 1260.59 -28.4763 1071.65 4.39928 846.126C38.9231 609.878 184.93 418.184 346.461 282.41C505.085 149.082 699.626 137.622 889.732 101.66Z" fill="#5CE1E6"/>
</svg>
